HIERARCHY
ROOT Hips
{
	OFFSET 0.00 0.00 0.00
	CHANNELS 6 Xposition Yposition Zposition Xrotation Yrotation Zrotation
	JOINT Spine
	{
		OFFSET 0.00000 1.72418 2.58627
		CHANNELS 3 Xrotation Yrotation Zrotation
		JOINT Spine1
		{
			OFFSET 0.00000 0.59880 3.39597
			CHANNELS 3 Xrotation Yrotation Zrotation
			JOINT Spine2
			{
				OFFSET 0.00000 0.30054 3.43524
				CHANNELS 3 Xrotation Yrotation Zrotation
				JOINT Spine3
				{
					OFFSET 0.00000 0.00000 3.44836
					CHANNELS 3 Xrotation Yrotation Zrotation
					JOINT Neck
					{
						OFFSET 0.00000 -1.29314 9.05195
						CHANNELS 3 Xrotation Yrotation Zrotation
						JOINT Head
						{
							OFFSET 0.00000 -0.82335 4.66946
							CHANNELS 3 Xrotation Yrotation Zrotation
							End Site
							{
								OFFSET 0.00000 0.00000 5.58203
							}
						}
					}
					JOINT RightShoulder
					{
						OFFSET -1.18828 -1.98047 6.41672
						CHANNELS 3 Xrotation Yrotation Zrotation
						JOINT RightArm
						{
							OFFSET -5.90180 -0.00000 0.00000
							CHANNELS 3 Xrotation Yrotation Zrotation
							JOINT RightForeArm
							{
								OFFSET -11.45951 -0.00000 0.00000
								CHANNELS 3 Xrotation Yrotation Zrotation
								JOINT RightHand
								{
									OFFSET -10.63451 -0.00000 0.00000
									CHANNELS 3 Xrotation Yrotation Zrotation
									JOINT RightHandEnd
									{
										OFFSET -2.86944 -0.00000 0.00000
										CHANNELS 3 Xrotation Yrotation Zrotation
										End Site
										{
											OFFSET -2.86944 -0.00000 0.00000
										}
									}
									JOINT RightHandThumb1
									{
										OFFSET -1.14778 -1.91296 -0.76518
										CHANNELS 3 Xrotation Yrotation Zrotation
										End Site
										{
											OFFSET -2.77167 -0.74267 0.00000
										}
									}
								}
							}
						}
					}
					JOINT LeftShoulder
					{
						OFFSET 1.18828 -1.98047 6.41672
						CHANNELS 3 Xrotation Yrotation Zrotation
						JOINT LeftArm
						{
							OFFSET 5.90180 0.00000 0.00000
							CHANNELS 3 Xrotation Yrotation Zrotation
							JOINT LeftForeArm
							{
								OFFSET 11.45951 0.00000 0.00000
								CHANNELS 3 Xrotation Yrotation Zrotation
								JOINT LeftHand
								{
									OFFSET 10.63451 0.00000 0.00000
									CHANNELS 3 Xrotation Yrotation Zrotation
									JOINT LeftHandEnd
									{
										OFFSET 2.86944 0.00000 0.00000
										CHANNELS 3 Xrotation Yrotation Zrotation
										End Site
										{
											OFFSET 2.86944 0.00000 0.00000
										}
									}
									JOINT LeftHandThumb1
									{
										OFFSET 1.14778 -1.91296 -0.76518
										CHANNELS 3 Xrotation Yrotation Zrotation
										End Site
										{
											OFFSET 2.77167 -0.74267 0.00000
										}
									}
								}
							}
						}
					}
				}
			}
		}
	}
	JOINT RightUpLeg
	{
		OFFSET -3.52524 0.00000 -1.02984
		CHANNELS 3 Xrotation Yrotation Zrotation
		JOINT RightLeg
		{
			OFFSET 0.00000 0.00000 -17.80965
			CHANNELS 3 Xrotation Yrotation Zrotation
			JOINT RightFoot
			{
				OFFSET 0.00000 0.00000 -17.00908
				CHANNELS 3 Xrotation Yrotation Zrotation
				JOINT RightToeBase
				{
					OFFSET 0.00000 -5.55853 -2.02314
					CHANNELS 3 Xrotation Yrotation Zrotation
					End Site
					{
						OFFSET 0.00000 -2.85188 0.00000
					}
				}
			}
		}
	}
	JOINT LeftUpLeg
	{
		OFFSET 3.52524 0.00000 -1.02984
		CHANNELS 3 Xrotation Yrotation Zrotation
		JOINT LeftLeg
		{
			OFFSET 0.00000 0.00000 -17.80965
			CHANNELS 3 Xrotation Yrotation Zrotation
			JOINT LeftFoot
			{
				OFFSET 0.00000 0.00000 -17.00908
				CHANNELS 3 Xrotation Yrotation Zrotation
				JOINT LeftToeBase
				{
					OFFSET 0.00000 -5.55853 -2.02314
					CHANNELS 3 Xrotation Yrotation Zrotation
					End Site
					{
						OFFSET 0.00000 -2.85188 0.00000
					}
				}
			}
		}
	}
}
MOTION
Frames: 15
Frame Time: 0.008342
 2.4081 -14.2323 37.6194 -2.5551 0.7384 175.4970 1.1491 -1.4242 -0.4001 0.6452 0.6508 -0.1203 1.2442 -0.0849 -2.6594 -0.2467 0.1042 -0.4082 -4.7276 -0.9549 -2.5489 -3.6855 1.0016 -1.5499 1.1122 6.4845 -0.3371 -0.3901 7.1226 6.8831 -0.0000 -0.0000 7.7901 -6.2250 29.7693 -3.6756 -0.0000 -0.0000 0.0000 -0.0000 -0.0000 -0.0000 7.4773 -8.4695 -1.2729 -10.0257 10.3258 7.2862 -0.0000 -0.0000 -13.8090 -12.6352 -22.7927 -0.2057 0.0000 -0.0000 -0.0000 0.0000 -0.0000 -0.0000 -10.3472 2.8312 -21.6975 20.2149 0.0000 0.0000 -13.9955 1.5414 -1.5649 2.7638 0.0000 0.0000 -12.2143 -10.7459 13.8612 25.9258 0.0000 0.0000 -12.8234 16.7136 -0.8746 -8.0978 -0.0000 0.0000
 2.3922 -14.2310 37.6227 -2.4870 0.7182 175.4665 1.1562 -1.4472 -0.4018 0.6441 0.6516 -0.1161 1.2715 -0.0628 -2.6342 -0.2399 0.1062 -0.4089 -4.6860 -0.9640 -2.5369 -3.6668 0.9997 -1.5351 1.1283 6.4966 -0.3290 -0.3717 7.0396 6.8977 0.0000 0.0000 7.8139 -6.1914 29.7919 -3.6903 -0.0000 0.0000 -0.0000 -0.0000 0.0000 -0.0000 7.5140 -8.4482 -1.2491 -10.0111 10.3631 7.2548 0.0000 0.0000 -13.8062 -12.6204 -22.8261 -0.1878 0.0000 -0.0000 -0.0000 -0.0000 -0.0000 0.0000 -10.2483 2.8395 -21.7644 20.1536 -0.0000 -0.0000 -13.9522 1.5108 -1.4893 2.7447 -0.0000 -0.0000 -12.1012 -10.7675 13.7400 25.9254 -0.0000 0.0000 -13.2144 16.0133 -0.3044 -8.2514 -0.0000 -0.0000
 2.3707 -14.2279 37.6267 -2.4031 0.6919 175.4133 1.1571 -1.4733 -0.4010 0.6400 0.6475 -0.1188 1.3027 -0.0350 -2.5852 -0.2294 0.1084 -0.4091 -4.6183 -0.9712 -2.5185 -3.6444 1.0001 -1.5176 1.1599 6.5187 -0.3148 -0.3269 6.9260 6.9174 -0.0000 0.0000 7.8351 -6.1496 29.7993 -3.7134 -0.0000 -0.0000 0.0000 0.0000 0.0000 0.0000 7.5477 -8.4216 -1.2236 -9.9770 10.4183 7.2222 -0.0000 0.0000 -13.8105 -12.5962 -22.8603 -0.1710 -0.0000 -0.0000 0.0000 0.0000 0.0000 0.0000 -10.1238 2.8482 -21.8389 20.0735 -0.0000 0.0000 -13.8998 1.4842 -1.3868 2.6538 -0.0000 0.0000 -11.9252 -10.7988 13.6355 25.8490 -0.0000 -0.0000 -13.5648 15.1181 0.3484 -8.5140 -0.0000 -0.0000
 2.3438 -14.2228 37.6311 -2.3123 0.6559 175.3340 1.1419 -1.5072 -0.4039 0.6314 0.6465 -0.1089 1.3399 -0.0091 -2.5323 -0.2158 0.1076 -0.4010 -4.5220 -0.9726 -2.4899 -3.6189 1.0025 -1.4982 1.2074 6.5552 -0.2932 -0.2561 6.7797 6.9468 -0.0000 -0.0000 7.8483 -6.0982 29.7812 -3.7448 -0.0000 -0.0000 0.0000 0.0000 -0.0000 0.0000 7.5785 -8.3866 -1.1874 -9.9184 10.4922 7.1759 -0.0000 -0.0000 -13.8155 -12.5669 -22.8926 -0.1600 0.0000 -0.0000 -0.0000 0.0000 0.0000 0.0000 -9.9831 2.8514 -21.9127 19.9759 -0.0000 0.0000 -13.8397 1.4650 -1.2609 2.4707 -0.0000 0.0000 -11.6875 -10.8457 13.5671 25.6787 -0.0000 0.0000 -13.8253 14.0623 1.0429 -8.8585 -0.0000 0.0000
 2.3118 -14.2150 37.6355 -2.2103 0.6078 175.2254 1.1167 -1.5447 -0.4045 0.6181 0.6408 -0.1053 1.3793 0.0136 -2.4533 -0.1985 0.1064 -0.3918 -4.3955 -0.9682 -2.4511 -3.5894 1.0082 -1.4760 1.2711 6.6050 -0.2641 -0.1568 6.6043 6.9891 0.0000 -0.0000 7.8486 -6.0409 29.7293 -3.7862 -0.0000 0.0000 -0.0000 -0.0000 -0.0000 0.0000 7.5979 -8.3454 -1.1449 -9.8329 10.5836 7.1239 -0.0000 0.0000 -13.8233 -12.5276 -22.9160 -0.1551 0.0000 0.0000 0.0000 -0.0000 0.0000 -0.0000 -9.8219 2.8459 -21.9779 19.8625 0.0000 0.0000 -13.7747 1.4546 -1.1150 2.1788 -0.0000 0.0000 -11.3760 -10.9102 13.5543 25.3978 -0.0000 0.0000 -13.9537 12.9009 1.7353 -9.2410 -0.0000 -0.0000
 2.2752 -14.2046 37.6393 -2.1073 0.5459 175.0878 1.0735 -1.5845 -0.4066 0.6006 0.6306 -0.1026 1.4188 0.0285 -2.3555 -0.1783 0.1025 -0.3784 -4.2392 -0.9561 -2.4003 -3.5561 1.0167 -1.4504 1.3494 6.6665 -0.2247 -0.0315 6.4063 7.0449 -0.0000 -0.0000 7.8328 -5.9819 29.6348 -3.8365 -0.0000 -0.0000 0.0000 0.0000 0.0000 0.0000 7.6023 -8.2941 -1.0935 -9.7173 10.6866 7.0639 0.0000 0.0000 -13.8307 -12.4828 -22.9264 -0.1591 0.0000 -0.0000 -0.0000 -0.0000 0.0000 -0.0000 -9.6538 2.8285 -22.0264 19.7402 -0.0000 -0.0000 -13.7087 1.4537 -0.9558 1.7670 -0.0000 0.0000 -11.0006 -10.9942 13.6127 25.0010 0.0000 -0.0000 -13.9231 11.7055 2.3821 -9.6069 0.0000 0.0000
 2.2346 -14.1914 37.6422 -2.0042 0.4731 174.9221 1.0167 -1.6204 -0.4088 0.5763 0.6154 -0.0987 1.4572 0.0322 -2.2449 -0.1552 0.0940 -0.3614 -4.0572 -0.9349 -2.3357 -3.5176 1.0283 -1.4218 1.4378 6.7370 -0.1752 0.1159 6.1940 7.1181 -0.0000 -0.0000 7.7980 -5.9248 29.4936 -3.8969 -0.0000 -0.0000 0.0000 -0.0000 -0.0000 0.0000 7.5884 -8.2286 -1.0305 -9.5740 10.7927 6.9953 -0.0000 -0.0000 -13.8364 -12.4317 -22.9183 -0.1693 0.0000 -0.0000 0.0000 -0.0000 -0.0000 -0.0000 -9.4839 2.8026 -22.0501 19.6184 0.0000 -0.0000 -13.6480 1.4613 -0.7900 1.2316 0.0000 0.0000 -10.5628 -11.0917 13.7553 24.4868 -0.0000 0.0000 -13.7243 10.5540 2.9465 -9.8969 -0.0000 -0.0000
 2.1906 -14.1759 37.6437 -1.9083 0.3911 174.7328 0.9436 -1.6483 -0.4118 0.5454 0.5959 -0.0951 1.4933 0.0195 -2.1259 -0.1299 0.0804 -0.3393 -3.8553 -0.9045 -2.2584 -3.4740 1.0427 -1.3895 1.5298 6.8098 -0.1149 0.2788 5.9794 7.2069 0.0000 -0.0000 7.7458 -5.8723 29.3018 -3.9665 -0.0000 0.0000 -0.0000 0.0000 -0.0000 -0.0000 7.5535 -8.1468 -0.9567 -9.4059 10.8938 6.9199 0.0000 0.0000 -13.8381 -12.3758 -22.8910 -0.1854 0.0000 -0.0000 -0.0000 0.0000 0.0000 0.0000 -9.3247 2.7694 -22.0419 19.5069 0.0000 -0.0000 -13.5974 1.4754 -0.6273 0.5765 0.0000 -0.0000 -10.0769 -11.1977 13.9880 23.8649 -0.0000 -0.0000 -13.3684 9.5212 3.3999 -10.0542 0.0000 -0.0000
 2.1438 -14.1583 37.6434 -1.8219 0.3032 174.5264 0.8568 -1.6632 -0.4154 0.5086 0.5732 -0.0912 1.5259 -0.0126 -2.0057 -0.1033 0.0605 -0.3121 -3.6411 -0.8658 -2.1696 -3.4249 1.0590 -1.3528 1.6188 6.8768 -0.0454 0.4499 5.7750 7.3113 0.0000 0.0000 7.6775 -5.8279 29.0645 -4.0447 -0.0000 0.0000 0.0000 0.0000 0.0000 0.0000 7.4964 -8.0463 -0.8718 -9.2201 10.9804 6.8397 -0.0000 0.0000 -13.8350 -12.3162 -22.8444 -0.2045 -0.0000 -0.0000 0.0000 -0.0000 0.0000 -0.0000 -9.1830 2.7331 -21.9986 19.4152 -0.0000 0.0000 -13.5617 1.4927 -0.4763 -0.1870 0.0000 0.0000 -9.5554 -11.3043 14.3117 23.1518 -0.0000 0.0000 -12.8826 8.6682 3.7220 -10.0304 0.0000 -0.0000
 2.0950 -14.1394 37.6413 -1.7463 0.2135 174.3120 0.7588 -1.6591 -0.4192 0.4683 0.5470 -0.0880 1.5542 -0.0656 -1.8908 -0.0762 0.0337 -0.2810 -3.4237 -0.8206 -2.0714 -3.3696 1.0764 -1.3118 1.6984 6.9281 0.0304 0.6192 5.5943 7.4298 -0.0000 -0.0000 7.5979 -5.7948 28.7886 -4.1293 -0.0000 -0.0000 -0.0000 0.0000 -0.0000 -0.0000 7.4183 -7.9256 -0.7772 -9.0243 11.0434 6.7571 -0.0000 0.0000 -13.8261 -12.2582 -22.7811 -0.2263 0.0000 -0.0000 -0.0000 -0.0000 -0.0000 0.0000 -9.0643 2.6990 -21.9205 19.3518 0.0000 -0.0000 -13.5447 1.5088 -0.3453 -1.0404 -0.0000 0.0000 -9.0127 -11.4019 14.7205 22.3697 0.0000 0.0000 -12.3053 8.0349 3.9035 -9.7875 0.0000 -0.0000
 2.0444 -14.1195 37.6374 -1.6800 0.1284 174.0998 0.6559 -1.6294 -0.4234 0.4249 0.5167 -0.0841 1.5781 -0.1370 -1.7905 -0.0491 -0.0012 -0.2450 -3.2130 -0.7721 -1.9678 -3.3089 1.0946 -1.2661 1.7622 6.9535 0.1073 0.7773 5.4484 7.5606 -0.0000 0.0000 7.5127 -5.7733 28.4871 -4.2183 0.0000 0.0000 0.0000 -0.0000 -0.0000 0.0000 7.3227 -7.7843 -0.6746 -8.8283 11.0744 6.6736 0.0000 0.0000 -13.8116 -12.2024 -22.7066 -0.2456 -0.0000 0.0000 -0.0000 -0.0000 -0.0000 0.0000 -8.9710 2.6750 -21.8109 19.3242 0.0000 -0.0000 -13.5493 1.5194 -0.2405 -1.9597 -0.0000 0.0000 -8.4623 -11.4787 15.2011 21.5434 -0.0000 -0.0000 -11.6797 7.6361 3.9478 -9.3042 -0.0000 0.0000
 1.9923 -14.0995 37.6320 -1.6236 0.0558 173.9002 0.5517 -1.5683 -0.4270 0.3769 0.4865 -0.0834 1.6010 -0.2292 -1.7026 -0.0232 -0.0411 -0.2114 -3.0191 -0.7247 -1.8627 -3.2436 1.1126 -1.2155 1.8044 6.9422 0.1807 0.9171 5.3467 7.7009 -0.0000 -0.0000 7.4285 -5.7630 28.1771 -4.3085 -0.0000 -0.0000 -0.0000 0.0000 0.0000 0.0000 7.2151 -7.6244 -0.5638 -8.6436 11.0687 6.5900 -0.0000 0.0000 -13.7916 -12.1504 -22.6285 -0.2603 0.0000 -0.0000 -0.0000 -0.0000 -0.0000 0.0000 -8.9076 2.6711 -21.6755 19.3387 0.0000 -0.0000 -13.5773 1.5206 -0.1669 -2.9169 -0.0000 0.0000 -7.9210 -11.5215 15.7324 20.6995 0.0000 -0.0000 -11.0484 7.4622 3.8712 -8.5761 -0.0000 -0.0000
 1.9389 -14.0799 37.6255 -1.5714 0.0011 173.7247 0.4518 -1.4721 -0.4298 0.3296 0.4575 -0.0832 1.6218 -0.3379 -1.6393 0.0013 -0.0868 -0.1771 -2.8500 -0.6824 -1.7612 -3.1747 1.1297 -1.1607 1.8221 6.8858 0.2435 1.0321 5.2951 7.8477 0.0000 0.0000 7.3526 -5.7635 27.8761 -4.3973 -0.0000 0.0000 -0.0000 -0.0000 0.0000 0.0000 7.1010 -7.4485 -0.4500 -8.4793 11.0227 6.5100 -0.0000 -0.0000 -13.7686 -12.1088 -22.5542 -0.2686 0.0000 0.0000 0.0000 0.0000 0.0000 0.0000 -8.8687 2.6948 -21.5260 19.3957 0.0000 0.0000 -13.6280 1.5086 -0.1252 -3.8829 -0.0000 0.0000 -7.3981 -11.5214 16.2893 19.8631 -0.0000 0.0000 -10.4501 7.4840 3.6967 -7.6171 0.0000 0.0000
 1.8842 -14.0612 37.6185 -1.5195 -0.0291 173.5834 0.3606 -1.3376 -0.4318 0.2850 0.4316 -0.0831 1.6415 -0.4586 -1.6041 0.0239 -0.1367 -0.1435 -2.7124 -0.6495 -1.6693 -3.1043 1.1457 -1.1018 1.8145 6.7780 0.2890 1.1197 5.2949 7.9966 0.0000 0.0000 7.2924 -5.7714 27.6041 -4.4820 -0.0000 -0.0000 -0.0000 0.0000 -0.0000 -0.0000 6.9866 -7.2616 -0.3378 -8.3430 10.9374 6.4357 0.0000 0.0000 -13.7444 -12.0769 -22.4907 -0.2694 0.0000 -0.0000 -0.0000 -0.0000 -0.0000 0.0000 -8.8501 2.7542 -21.3742 19.4934 -0.0000 0.0000 -13.6993 1.4811 -0.1143 -4.8294 -0.0000 0.0000 -6.9032 -11.4690 16.8406 19.0560 0.0000 -0.0000 -9.9157 7.6576 3.4574 -6.4624 0.0000 -0.0000
 1.8278 -14.0439 37.6117 -1.4655 -0.0283 173.4843 0.2808 -1.1648 -0.4329 0.2426 0.4120 -0.0834 1.6629 -0.5852 -1.5956 0.0443 -0.1886 -0.1137 -2.6104 -0.6313 -1.5921 -3.0350 1.1608 -1.0402 1.7831 6.6152 0.3099 1.1789 5.3431 8.1456 -0.0000 -0.0000 7.2524 -5.7817 27.3775 -4.5594 -0.0000 0.0000 -0.0000 0.0000 -0.0000 -0.0000 6.8793 -7.0724 -0.2307 -8.2411 10.8187 6.3674 -0.0000 0.0000 -13.7211 -12.0567 -22.4468 -0.2615 -0.0000 -0.0000 0.0000 0.0000 0.0000 -0.0000 -8.8480 2.8573 -21.2317 19.6279 0.0000 -0.0000 -13.7882 1.4369 -0.1315 -5.7304 0.0000 -0.0000 -6.4445 -11.3574 17.3535 18.2951 0.0000 -0.0000 -9.4673 7.9317 3.1911 -5.1663 0.0000 0.0000
